<svg aria-hidden="true" style="position: absolute; width: 0; height: 0; overflow: hidden;" version="1.1" xmlns="http://www.w3.org/2000/svg" xmlns:xlink="http://www.w3.org/1999/xlink">
<defs>
<symbol id="icon-bookmark-o" viewBox="0 0 20 28">
<title>bookmark-o</title>
<path d="M18 4h-16v19.406l8-7.672 1.391 1.328 6.609 6.344v-19.406zM18.188 2c0.234 0 0.469 0.047 0.688 0.141 0.688 0.266 1.125 0.906 1.125 1.609v20.141c0 0.703-0.438 1.344-1.125 1.609-0.219 0.094-0.453 0.125-0.688 0.125-0.484 0-0.938-0.172-1.297-0.5l-6.891-6.625-6.891 6.625c-0.359 0.328-0.812 0.516-1.297 0.516-0.234 0-0.469-0.047-0.688-0.141-0.688-0.266-1.125-0.906-1.125-1.609v-20.141c0-0.703 0.438-1.344 1.125-1.609 0.219-0.094 0.453-0.141 0.688-0.141h16.375z"></path>
</symbol>
<symbol id="icon-twitter" viewBox="0 0 32 32">
<title>twitter</title>
<path fill="#1da1f2" style="fill: var(--color1, #1da1f2)" d="M31.939 6.092c-1.18 0.519-2.44 0.872-3.767 1.033 1.352-0.815 2.392-2.099 2.884-3.631-1.268 0.74-2.673 1.279-4.169 1.579-1.195-1.279-2.897-2.079-4.788-2.079-3.623 0-6.56 2.937-6.56 6.556 0 0.52 0.060 1.020 0.169 1.499-5.453-0.257-10.287-2.876-13.521-6.835-0.569 0.963-0.888 2.081-0.888 3.3 0 2.28 1.16 4.284 2.917 5.461-1.076-0.035-2.088-0.331-2.971-0.821v0.081c0 3.18 2.257 5.832 5.261 6.436-0.551 0.148-1.132 0.228-1.728 0.228-0.419 0-0.82-0.040-1.221-0.115 0.841 2.604 3.26 4.503 6.139 4.556-2.24 1.759-5.079 2.807-8.136 2.807-0.52 0-1.039-0.031-1.56-0.089 2.919 1.859 6.357 2.945 10.076 2.945 12.072 0 18.665-9.995 18.665-18.648 0-0.279 0-0.56-0.020-0.84 1.281-0.919 2.4-2.080 3.28-3.397l-0.063-0.027z"></path>
</symbol>
<symbol id="icon-search" viewBox="0 0 32 32">
<title>search</title>
<path d="M19.427 20.427c-1.39 0.99-3.090 1.573-4.927 1.573-4.694 0-8.5-3.806-8.5-8.5s3.806-8.5 8.5-8.5c4.694 0 8.5 3.806 8.5 8.5 0 2.347-0.951 4.472-2.49 6.010l5.997 5.997c0.275 0.275 0.268 0.716-0.008 0.992-0.278 0.278-0.72 0.28-0.992 0.008l-6.081-6.081zM14.5 21c4.142 0 7.5-3.358 7.5-7.5s-3.358-7.5-7.5-7.5c-4.142 0-7.5 3.358-7.5 7.5s3.358 7.5 7.5 7.5v0z"></path>
</symbol>
</defs>
</svg>
